<?xml version="1.0" encoding="UTF-8" standalone="no"?>
<!-- Created with Inkscape (http://www.inkscape.org/) -->

<svg
   xmlns:dc="http://purl.org/dc/elements/1.1/"
   xmlns:cc="http://creativecommons.org/ns#"
   xmlns:rdf="http://www.w3.org/1999/02/22-rdf-syntax-ns#"
   xmlns:svg="http://www.w3.org/2000/svg"
   xmlns="http://www.w3.org/2000/svg"
   xmlns:sodipodi="http://sodipodi.sourceforge.net/DTD/sodipodi-0.dtd"
   xmlns:inkscape="http://www.inkscape.org/namespaces/inkscape"
   width="210mm"
   height="297mm"
   viewBox="0 0 210 297"
   version="1.1"
   id="svg1032"
   inkscape:version="0.92.4 (5da689c313, 2019-01-14)"
   sodipodi:docname="mountains-nature.svg">
  <defs
     id="defs1026">
    <clipPath
       id="clipPath2263"
       clipPathUnits="userSpaceOnUse">
      <path
         inkscape:connector-curvature="0"
         id="path2261"
         d="M 0,1055.221 H 676.336 V 0 H 0 Z" />
    </clipPath>
  </defs>
  <sodipodi:namedview
     id="base"
     pagecolor="#ffffff"
     bordercolor="#666666"
     borderopacity="1.0"
     inkscape:pageopacity="0.0"
     inkscape:pageshadow="2"
     inkscape:zoom="0.28300781"
     inkscape:cx="858.68737"
     inkscape:cy="1345.1153"
     inkscape:document-units="mm"
     inkscape:current-layer="layer1"
     showgrid="false"
     inkscape:window-width="1920"
     inkscape:window-height="1001"
     inkscape:window-x="-9"
     inkscape:window-y="-9"
     inkscape:window-maximized="1" />
  <metadata
     id="metadata1029">
    <rdf:RDF>
      <cc:Work
         rdf:about="">
        <dc:format>image/svg+xml</dc:format>
        <dc:type
           rdf:resource="http://purl.org/dc/dcmitype/StillImage" />
        <dc:title></dc:title>
      </cc:Work>
    </rdf:RDF>
  </metadata>
  <g
     inkscape:label="Layer 1"
     inkscape:groupmode="layer"
     id="layer1">
    <g
       style="clip-rule:evenodd;fill-rule:evenodd;stroke-linejoin:round;stroke-miterlimit:2"
       id="g4332"
       transform="matrix(0.19093256,0,0,0.19093256,11.900339,91.54074)">
      <g
         id="g4314"
         transform="matrix(14.2975,0,0,14.2975,-5711.99,-9319.08)">
        <g
   id="g4312">
            <g
   id="g4302"
   transform="translate(414.815,664.218)">
                <path
   id="path4300"
   style="fill-rule:nonzero"
   d="M 0,16.358 C 0.013,16.308 0.027,16.267 0.04,16.249 0.05,16.245 0.053,16.228 0.063,16.218 0.04,16.267 0.022,16.314 0,16.358 m 49.487,-2.334 c 0.084,0.01 0.165,0.021 0.242,0.024 -0.108,-0.044 -0.219,-0.089 -0.34,-0.134 -0.323,-0.361 -0.655,-0.725 -0.997,-1.093 -2.135,-2.302 -3.403,-3.467 -3.767,-3.467 -0.578,0 -3.008,2.645 -4.538,4.382 -0.298,-0.432 -0.59,-0.859 -0.859,-1.252 C 38.495,11.399 37.912,10.545 37.622,10.218 36.795,9.274 34.324,5.514 33.67,3.361 32.991,1.129 30.1,-1.718 29.975,-1.838 c -0.033,-0.03 -0.068,-0.056 -0.113,-0.065 -0.767,-0.175 -1.059,0.467 -1.342,1.087 -0.123,0.271 -0.262,0.575 -0.451,0.861 -0.344,0.53 -3.309,3.293 -5.13,4.957 C 22.47,4.421 21.88,3.803 21.802,3.556 21.694,3.223 22.03,3.258 22.353,3.303 c 0.322,0.035 0.58,0.076 0.58,-0.167 0,-0.247 -0.043,-0.412 -0.043,-0.412 0,0 -0.313,0.058 -0.578,-0.137 -0.262,-0.198 -0.323,-0.441 -0.607,-0.441 -0.285,0 -0.383,-0.069 -0.353,-0.362 0.03,-0.298 -0.067,-0.858 0.501,-0.532 0.567,0.322 1.037,0.302 1.069,0.047 0.027,-0.253 0.175,-0.732 -0.228,-1.035 -0.399,-0.304 -1.174,-1.58 -1.022,-2.072 0.158,-0.49 0.533,-0.693 0.814,-0.45 0.288,0.242 1.221,0.677 1.139,0.115 -0.078,-0.558 -1.645,-2.274 -2.068,-2.58 -0.419,-0.303 -0.627,-0.792 -0.617,-1.263 0.007,-0.475 -0.165,-0.922 0.047,-0.86 0.218,0.056 0.765,0.71 0.885,0.408 0,0 0.108,-0.527 -0.1,-0.685 -0.205,-0.161 -0.55,-0.268 -0.55,-0.611 0,-0.342 -0.137,-1.281 -0.259,-1.667 -0.13,-0.38 0.465,-3.55 -0.504,-2.94 0,0 -0.53,0.293 -0.448,0.783 0.076,0.493 0.159,0.53 -0.014,1.197 -0.165,0.67 0.09,1.453 -0.146,2.08 -0.237,0.625 -0.748,1.763 -1.591,2.295 -0.84,0.528 -1.255,0.665 -1.078,0.94 0.178,0.275 0.453,0.413 0.96,0 0.512,-0.412 1.355,-1.335 1.69,-1.232 0.33,0.095 -0.18,1.095 -0.374,1.273 -0.193,0.175 -1.391,1.724 -1.806,1.724 -0.407,0 -0.195,0.433 -0.232,0.55 -0.043,0.117 -0.315,0.407 -0.117,0.433 0.195,0.017 1.822,-0.215 2.037,-0.338 0.217,-0.11 0.178,0.355 -0.038,0.474 -0.217,0.118 -0.727,0.827 -1.179,1.041 -0.448,0.217 -1.178,0.571 -1.408,0.903 -0.238,0.33 -0.475,0.785 -0.14,0.805 0.332,0.017 0.962,-0.667 1.04,-0.475 0.074,0.197 -0.296,0.726 -0.117,0.985 0.177,0.257 0.587,0.06 0.725,0.389 0.136,0.333 0,0.198 -0.196,0.591 -0.192,0.382 -1.44,1.37 -2.312,1.812 C 15.433,3.472 14.774,2.539 14.265,2.051 13.66,1.471 13.46,0.879 13.207,-0.316 12.93,-1.652 11.57,-2.466 11.518,-2.501 11.462,-2.536 11.396,-2.542 11.335,-2.526 11.274,-2.511 11.223,-2.474 11.188,-2.416 11.163,-2.371 8.595,2.21 8.149,2.787 7.992,2.995 7.793,3.141 7.577,3.299 7.203,3.579 6.775,3.889 6.457,4.577 5.897,5.792 4.053,9.521 2.99,10.681 2.797,10.891 2.555,11.269 2.274,11.747 2.143,11.522 1.938,11.191 1.69,10.926 1.56,10.784 1.397,10.626 1.228,10.469 0.86,10.122 0.407,9.689 -0.002,9.127 -0.395,8.582 -0.737,7.997 -1.067,7.428 -1.247,7.12 -1.418,6.826 -1.587,6.554 -2.097,5.744 -4.96,3.338 -5.425,3.051 -5.553,2.972 -5.712,2.962 -5.867,3.026 c -0.585,0.248 -1.218,1.613 -1.36,2.245 -0.118,0.533 -0.84,1.61 -1.608,2.758 -0.257,0.386 -0.53,0.785 -0.789,1.19 -1.065,1.643 -5.681,8.775 -5.681,8.775 l 0.399,0.256 c 0,0 4.611,-7.131 5.678,-8.776 0.258,-0.397 0.526,-0.798 0.786,-1.184 0.827,-1.234 1.54,-2.301 1.677,-2.916 0.17,-0.786 0.861,-1.914 1.095,-1.922 0.436,0.271 3.213,2.609 3.68,3.351 0.171,0.271 0.34,0.557 0.514,0.862 0.335,0.579 0.683,1.172 1.094,1.737 0.435,0.597 0.907,1.047 1.281,1.406 0.176,0.161 0.324,0.306 0.446,0.439 0.35,0.378 0.623,0.912 0.66,0.992 -0.055,0.099 -0.11,0.205 -0.164,0.305 -0.179,0.049 -2.649,0.674 -3.658,-0.052 -0.806,-0.481 -1.688,0.024 -2.145,0.422 0.907,-0.345 1.91,-0.233 1.827,0.24 -0.09,0.473 0.143,0.855 0.55,0.753 0.412,-0.093 1.022,0.305 0.923,0.584 -0.103,0.288 0.005,0.549 0.117,0.697 0.117,0.156 0.402,0.378 0.165,0.648 -0.238,0.263 -0.474,0.035 -0.46,0.795 0.008,0.76 0.032,0.92 -0.053,1.068 -0.052,0.093 -0.136,0.672 -0.194,1.096 -0.163,0.379 -0.267,0.626 -0.29,0.676 -0.048,0.117 0.004,0.255 0.127,0.313 0.029,0.01 0.058,0.017 0.087,0.017 0.096,0 0.183,-0.054 0.224,-0.145 0.027,-0.072 3.187,-7.472 4.274,-8.652 C 4.649,9.569 6.864,4.821 6.885,4.774 7.152,4.194 7.512,3.934 7.854,3.681 8.087,3.513 8.33,3.332 8.522,3.077 c 0.411,-0.54 2.421,-4.095 2.956,-5.041 0.357,0.263 1.092,0.892 1.272,1.748 0.266,1.27 0.5,1.945 1.188,2.607 0.458,0.438 1.064,1.293 1.357,1.716 -0.628,0.337 -0.985,0.572 -1.428,0.572 -0.522,0 -0.639,0.196 -0.639,0.46 0,0.27 0.259,0.245 0.684,0.245 0.426,0 1.655,-0.477 1.655,0.255 0,0.733 0.346,1.115 0.433,1 0.085,-0.115 0.04,-0.31 0.285,-0.31 0.253,0 0.627,0.298 0.5,0.425 -0.13,0.133 -0.39,0.544 -0.224,0.712 0.17,0.176 0.561,0.25 0.849,0.25 0.287,0 0.38,-0.457 0.675,-0.457 0.295,0 0.458,0.231 0.09,0.6 -0.362,0.362 -1.501,0.774 -2.237,0.935 -0.736,0.16 -1.874,0.285 -2.225,0.879 0,0 -0.033,0.396 0.149,0.366 0.182,-0.033 0.435,-0.497 1.438,-0.579 1,-0.088 1.493,-0.381 1.569,-0.369 0.076,0.01 -0.098,0.513 -0.541,0.656 -0.448,0.142 -1.028,0.62 -1.408,0.942 -0.38,0.317 -0.707,0.675 -0.707,0.79 0,0.11 0.156,0.425 0.372,0.255 0.22,-0.171 0.275,-0.465 0.835,-0.62 0.553,-0.157 0.5,-0.016 0.894,-0.237 0.388,-0.225 0.721,-0.175 0.691,0.149 -0.026,0.327 -0.231,0.293 -0.555,0.701 -0.328,0.409 -0.45,1.217 -0.751,1.372 -0.3,0.157 -2.309,1.275 -2.329,1.347 -0.017,0.073 0.277,0.545 0.995,0.353 0.72,-0.189 1.363,-0.32 1.82,-0.68 0.456,-0.36 1.03,-0.712 1.03,-0.712 0,0 -0.143,0.513 -0.513,0.957 -0.362,0.443 -0.702,0.598 -1.213,0.692 -0.507,0.093 -1.476,0.785 -1.476,0.821 0,0.042 0.806,0.109 1.096,0.409 0.29,0.298 -0.602,0.468 -1.122,0.407 -0.522,-0.066 -0.482,-0.019 -0.445,0.283 0.037,0.303 0.325,0.303 0.511,0.628 0.179,0.327 -0.199,0.365 -0.066,0.717 0.127,0.352 0.034,1.011 -0.772,0.948 -0.81,-0.067 -1.202,0.48 -1.268,0.718 -0.068,0.232 0.783,0.132 1.318,-0.095 0.535,-0.223 1.073,0 1.073,0 -0.575,0.852 -1.947,1.022 -2.078,1.032 -0.13,0.015 -0.532,0.112 -0.574,0.188 -0.041,0.076 0.022,1.137 0.141,1.172 0.12,0.043 0.705,-0.103 2.575,-0.913 1.872,-0.81 1.926,-1.282 2.093,-1.323 0.17,-0.043 0.08,0.214 -0.025,0.527 -0.105,0.312 -0.534,0.483 -0.22,0.613 0.311,0.133 0.872,-0.959 1.005,-0.994 0.13,-0.04 0.25,0.301 0.152,0.784 -0.094,0.485 -1.157,1.323 -1.742,1.713 -0.587,0.393 -0.266,0.54 0.082,0.495 0.357,-0.035 2.082,-1.685 2.253,-2.128 0.173,-0.444 0.432,-1.049 0.592,-1.007 0.16,0.038 -0.002,0.786 -0.175,1.688 -0.17,0.9 -0.302,4.272 -0.302,4.94 0,0.667 0.108,2.63 0.108,2.63 h 0.417 c 0,0 0.104,-1.219 0.26,-1.631 0.16,-0.419 0.185,-0.804 0.11,-0.999 -0.083,-0.193 -0.122,-0.625 0,-0.848 0.115,-0.227 0.014,-4.157 0.014,-4.157 0,0 0.453,0.075 0.808,-0.15 0.354,-0.226 0.635,-0.343 0.843,-0.145 0.208,0.193 0.654,0.575 0.913,0.43 0.255,-0.144 0.409,-0.315 0.067,-0.607 -0.342,-0.293 -0.45,-0.233 -0.503,-0.627 -0.048,-0.393 0.07,-0.336 -0.251,-0.581 -0.324,-0.245 -0.334,-0.361 -0.334,-0.361 0,0 0.686,-0.384 1.222,0.086 0.546,0.47 0.936,1.28 1.964,1.715 1.029,0.443 1.699,0.794 2.029,0.975 0.335,0.175 0.56,0.137 0.776,0.222 0.213,0.09 0.559,0.373 0.707,0.413 0.144,0.04 0.338,-0.137 0.295,-0.225 -0.04,-0.085 -0.081,-0.128 -0.813,-0.865 -0.734,-0.736 -0.993,-0.998 -1.248,-1.167 -0.255,-0.168 -1.469,-0.968 -1.746,-1.203 -0.274,-0.241 -0.266,-0.668 -0.062,-0.625 0.208,0.035 0.769,0.399 0.878,0.384 0.108,-0.004 0.156,-0.301 0.037,-0.446 -0.115,-0.148 -0.439,-0.123 -0.792,-0.831 -0.351,-0.709 -0.519,-0.915 -0.137,-0.995 0.383,-0.077 1.008,0.225 1.008,0.225 0,0 0.342,-0.379 0.11,-0.549 -0.235,-0.163 -1.042,-0.686 -1.161,-1.029 -0.117,-0.344 0.043,-0.684 0.259,-0.53 0.217,0.156 0.862,0.553 0.921,0.553 0.06,0 0.401,-0.404 0,-0.659 -0.401,-0.258 -0.726,-0.616 -0.992,-0.813 -0.168,-0.128 -0.115,-0.448 -0.123,-0.835 0.535,-0.513 1.144,-1.207 1.783,-1.932 0.981,-1.113 2.33,-2.633 2.785,-2.633 0.57,0.005 3.485,3.434 5.97,6.745 0.045,0.062 0.117,0.095 0.188,0.095 0.049,0 0.099,-0.02 0.141,-0.044 0.107,-0.08 0.125,-0.231 0.049,-0.331 -1.225,-1.63 -5.294,-6.94 -6.348,-6.94 -0.625,0 -1.605,1.058 -3.14,2.797 -0.517,0.588 -1.043,1.186 -1.516,1.663 -0.008,-0.041 -0.024,-0.082 -0.041,-0.125 -0.275,-0.658 -0.796,-1.002 -0.708,-1.394 0.083,-0.358 0.385,-0.389 0.375,-0.638 0.317,-0.168 0.592,-0.308 0.742,-0.351 0.44,-0.12 0.468,-0.165 0.57,-0.34 0.108,-0.167 0.347,-0.299 0.66,-0.362 0.312,-0.062 0.323,-0.14 0.44,-0.312 0.119,-0.173 0.414,-0.646 0.705,-0.738 0.298,-0.097 0.366,-0.2 0.38,-0.377 0.015,-0.18 0.3,-0.773 0.661,-0.93 0.355,-0.16 0.684,0.176 0.942,0.402 0.258,0.228 0.546,0.37 0.774,0.502 0.226,0.133 0.944,0.604 0.944,0.604 C 29.487,8.006 28.984,7.161 28.947,6.834 28.907,6.502 28.752,5.431 27.912,4.877 27.467,4.524 27.499,4.432 27.467,4.25 27.43,4.069 27.127,3.489 26.935,3.415 c 0,0 0.592,0.399 -0.148,1.406 0.186,0.24 0.526,0.647 0.098,0.898 -0.428,0.245 -0.303,0.76 -0.358,0.995 -0.049,0.238 -0.206,0.935 -0.964,1.592 -0.761,0.666 -0.901,0.731 -1.146,0.816 -0.247,0.085 -0.298,0.277 -0.355,0.381 -0.03,0.053 -0.35,0.454 -0.919,0.929 C 22.96,10.087 22.534,9.569 22.319,9.285 22.067,8.939 21.88,8.633 22.038,8.569 c 0.156,-0.072 0.586,0 0.895,0.415 0.301,0.41 0.614,0.732 0.82,0.662 C 23.96,9.579 23.715,8.754 23.107,8.354 22.497,7.949 22.104,7.763 22.167,7.462 22.228,7.159 22.439,7.194 22.605,7.165 22.774,7.138 22.782,6.744 22.933,6.724 23.077,6.707 23.44,7.222 23.805,6.928 24.167,6.636 23.792,6.244 23.364,5.565 23.325,5.504 23.28,5.439 23.229,5.377 c 1.556,-1.43 4.828,-4.458 5.233,-5.073 0.21,-0.309 0.357,-0.642 0.487,-0.925 0.288,-0.637 0.434,-0.877 0.746,-0.832 0.389,0.389 2.927,2.993 3.527,4.95 0.668,2.213 3.197,6.065 4.046,7.032 0.269,0.308 0.874,1.194 1.575,2.221 0.234,0.346 0.479,0.705 0.726,1.066 C 38.915,13.428 36.399,11.924 35.01,10.862 33.402,9.624 33.25,9.149 32.969,7.843 32.692,6.546 32.191,5.95 31.737,5.713 31.287,5.479 31.475,5.374 31.447,5.104 31.414,4.837 31.055,4.426 31.055,4.426 c 0,0 0.435,0.274 0.672,0.438 0.235,0.165 0.477,0.468 0.911,0.604 0.426,0.138 0.867,0.511 1.348,1.045 C 33.912,6.176 33.427,5.479 33.207,5.274 32.987,5.069 33.024,5.006 32.469,4.069 31.914,3.122 29.833,1.54 29.532,1.28 c -0.3,-0.259 -0.49,-0.234 -0.417,0.167 0.547,1.215 -0.197,2.516 -0.197,2.516 1.579,0.079 1.637,1.039 1.646,1.308 0.011,0.271 -0.037,0.58 0.743,1.343 0.78,0.765 0.713,2.118 0.708,2.503 -0.005,0.387 0.21,0.92 0.392,1.217 0.183,0.307 1.565,3.379 2.48,3.615 -0.199,-0.297 -1.302,-2.497 -1.209,-3.138 1.744,1.403 4.46,2.793 5.944,3.077 1.267,1.849 2.625,3.743 3.342,4.213 0.04,0.03 0.086,0.043 0.131,0.043 0.08,0 0.152,-0.04 0.197,-0.11 0.072,-0.108 0.042,-0.253 -0.067,-0.327 -0.582,-0.383 -1.748,-1.966 -2.863,-3.574 1.795,-2.032 3.823,-4.141 4.26,-4.303 0.392,0.164 2.069,1.839 3.819,3.746 -0.717,-0.259 -1.476,-0.587 -2.114,-1.156 -0.36,-0.505 -0.943,-0.929 -1.077,-1.108 -0.136,-0.181 -0.636,-0.351 -0.636,-0.351 0,0 0.288,0.286 0.21,0.833 0.325,0.357 0.605,0.448 0.808,0.805 0.2,0.36 0.403,0.582 0.403,0.582 -0.023,-0.319 0,-0.409 0,-0.409 0,0 0.564,0.065 0.829,0.29 0.188,0.152 1.003,0.528 1.816,0.775 1.512,1.662 3.034,3.452 3.795,4.554 0.042,0.068 0.119,0.103 0.191,0.103 0.05,0 0.096,-0.012 0.136,-0.043 0.105,-0.072 0.132,-0.22 0.062,-0.324 -0.639,-0.928 -1.902,-2.46 -3.377,-4.103"
   inkscape:connector-curvature="0" />

            </g>

            <g
   id="g4306"
   transform="translate(424.098,678.626)">
                <path
   id="path4304"
   style="fill-rule:nonzero"
   d="m 0,-4.946 c -0.59,0.34 -0.417,1.053 -0.489,1.382 -0.076,0.325 -0.288,1.285 -1.339,2.202 -1.055,0.921 -1.242,1.006 -1.587,1.126 -0.34,0.12 -0.407,0.383 -0.487,0.525 -0.077,0.137 -1.462,1.837 -3.823,2.903 1.061,-0.258 3.098,-1.561 3.705,-1.729 0.608,-0.171 0.65,-0.232 0.793,-0.467 0.145,-0.24 0.475,-0.425 0.908,-0.507 0.434,-0.082 0.45,-0.19 0.612,-0.43 0.16,-0.24 0.569,-0.893 0.977,-1.025 0.411,-0.132 0.505,-0.275 0.522,-0.52 0.023,-0.248 0.418,-1.072 0.915,-1.288 0.495,-0.219 0.95,0.246 1.304,0.555 0.357,0.316 0.759,0.515 1.077,0.698 0.31,0.182 1.308,0.838 1.308,0.838 C 3.608,-1.778 2.911,-2.946 2.855,-3.401 2.8,-3.864 2.588,-5.341 1.425,-6.108 0.81,-6.596 0.853,-6.723 0.808,-6.975 0.753,-7.226 0.337,-8.031 0.078,-8.138 c 0,0 0.817,0.552 -0.21,1.952 0.255,0.33 0.73,0.9 0.132,1.24"
   inkscape:connector-curvature="0" />

            </g>

            <g
   id="g4310"
   transform="translate(445.697,675.984)">
                <path
   id="path4308"
   style="fill-rule:nonzero"
   d="M 0,1.561 C -0.157,1.111 -0.234,1.055 -0.517,0.808 -0.798,0.564 -1.694,-0.367 -2.032,-0.964 c -0.337,-0.592 -0.75,-0.943 -1.178,-1 0.564,0.752 0.876,1.537 0.907,1.977 0.213,0.325 0.271,0.856 0.271,0.856 0,0 0.124,-0.229 0.022,-0.856 0.09,0.315 1,1.098 1.183,1.155 0.187,0.06 0.21,0.17 0.399,0.348 C 0.045,2.47 1.122,3.525 1.561,3.433 1.313,3.231 0.158,2.013 0,1.561"
   inkscape:connector-curvature="0" />

            </g>

        </g>

    </g>
    </g>
  </g>
</svg>
